<?xml version="1.0" encoding="utf-8"?>
<!-- Generator: Adobe Illustrator 16.0.0, SVG Export Plug-In . SVG Version: 6.00 Build 0)  -->
<!DOCTYPE svg PUBLIC "-//W3C//DTD SVG 1.1//EN" "http://www.w3.org/Graphics/SVG/1.1/DTD/svg11.dtd">
<svg version="1.1"
	 id="svg119" sodipodi:docname="lesavoir.svg" inkscape:version="1.0 (4035a4f, 2020-05-01)" xmlns:dc="http://purl.org/dc/elements/1.1/" xmlns:cc="http://creativecommons.org/ns#" xmlns:rdf="http://www.w3.org/1999/02/22-rdf-syntax-ns#" xmlns:svg="http://www.w3.org/2000/svg" xmlns:sodipodi="http://sodipodi.sourceforge.net/DTD/sodipodi-0.dtd" xmlns:inkscape="http://www.inkscape.org/namespaces/inkscape"
	 xmlns="http://www.w3.org/2000/svg" xmlns:xlink="http://www.w3.org/1999/xlink" x="0px" y="0px" width="90.521px"
	 height="73.817px" viewBox="0 -1.516 90.521 73.817" enable-background="new 0 -1.516 90.521 73.817" xml:space="preserve">
<sodipodi:namedview  inkscape:document-units="mm" inkscape:window-height="729" inkscape:window-x="34" inkscape:pageopacity="0.0" inkscape:window-y="23" inkscape:pageshadow="2" inkscape:window-maximized="0" inkscape:current-layer="text10-6" inkscape:document-rotation="0" inkscape:window-width="1246" id="base" pagecolor="#ffffff" bordercolor="#666666" borderopacity="1.0" inkscape:zoom="0.86040217" inkscape:cx="403.09436" inkscape:cy="263.0404" showgrid="false">
	</sodipodi:namedview>
<path id="path57" fill="#999999" d="M49.365,62.242c0,1.732-0.09,4.6-0.269,8.6h-0.987c-0.358,0-1.226-0.066-2.602-0.199
	c-1.375-0.135-2.93-0.201-4.664-0.201L3.525,70.142c-1.017,0-1.524-0.301-1.524-0.9c0-0.467,0.807-0.768,2.422-0.9
	c2.272-0.133,3.618-0.4,4.037-0.801c0.479-0.465,0.717-1.732,0.717-3.799V7.541c0-2.466-0.238-3.899-0.717-4.3
	c-0.419-0.399-2.004-0.6-4.755-0.6C2.569,2.642,2,2.275,2,1.541c0-0.6,0.358-0.899,1.076-0.899h0.808
	c1.974,0.2,5.891,0.3,11.751,0.3c0.538,0,1.585-0.033,3.14-0.1c1.556-0.134,2.841-0.2,3.857-0.2h0.987c1.076,0,1.614,0.333,1.614,1
	c0,0.399-0.179,0.667-0.538,0.8c-0.299,0.066-1.315,0.134-3.05,0.2s-2.781,0.399-3.14,1c-0.299,0.533-0.448,2.267-0.448,5.2v59
	c1.614,0.066,3.856,0.1,6.728,0.1c6.997,0,11.931-0.4,14.802-1.199c2.87-0.801,4.813-2.301,5.831-4.5
	c1.017-2.201,1.614-5.166,1.794-8.9c0.06-0.867,0.418-1.301,1.076-1.301c0.777,0,1.137,0.5,1.076,1.5l-0.09,2.5
	c0,0.135,0,0.434,0,0.9c0.061,0.467,0.09,0.934,0.09,1.4V62.242z"/>
<path id="path61" d="M89.365,50.642c0,5.732-1.974,10.633-5.921,14.699c-3.887,4-8.581,6-14.084,6c-3.229,0-7.086-1.1-11.571-3.299
	c-1.196-0.602-2.094-0.9-2.691-0.9c-0.718,0-1.166,0.967-1.346,2.9c-0.06,1-0.448,1.5-1.166,1.5c-0.599,0-0.897-0.4-0.897-1.201
	c0-0.533,0.03-0.934,0.09-1.199c0.479-4.066,0.718-7.834,0.718-11.301c0-0.666-0.06-2.533-0.18-5.6c-0.06-0.4-0.09-0.934-0.09-1.6
	c0-1,0.359-1.5,1.077-1.5c0.598,0,1.017,0.799,1.256,2.398c1.555,11.867,6.608,17.801,15.16,17.801c3.648,0,6.459-1.133,8.433-3.4
	c2.033-2.332,3.05-5.6,3.05-9.799c0-3.734-0.987-6.9-2.96-9.5c-1.914-2.668-5.233-5.301-9.958-7.9
	c-5.682-3.133-9.628-6.167-11.841-9.1s-3.319-6.566-3.319-10.9c0-5.533,1.585-10.1,4.755-13.7c3.229-3.6,7.296-5.399,12.199-5.399
	c2.033,0,4.845,0.767,8.433,2.3c1.256,0.533,2.183,0.8,2.781,0.8c0.657,0,1.076-0.133,1.256-0.399
	c0.239-0.267,0.448-0.967,0.628-2.101c0.119-0.666,0.448-1,0.986-1c0.599,0,0.897,0.4,0.897,1.2c0,0.533-0.03,0.934-0.09,1.2
	c-0.18,1.6-0.27,3.533-0.27,5.8c0,3.2,0.149,5.733,0.449,7.6l0.09,1.601c0.06,0.733-0.21,1.1-0.808,1.1
	c-0.658,0-1.106-0.767-1.346-2.3c-0.658-3.934-2.213-7.2-4.665-9.8c-2.452-2.667-5.203-4-8.253-4c-2.99,0-5.382,1.066-7.177,3.2
	c-1.733,2.133-2.601,5.033-2.601,8.699c0,4.268,1.285,7.7,3.857,10.301c1.435,1.467,4.545,3.533,9.329,6.199
	c5.621,3.134,9.658,6.333,12.11,9.601C88.14,42.842,89.365,46.508,89.365,50.642z"/>
</svg>
