<?xml version="1.0" encoding="UTF-8" standalone="no"?>
<svg
   xmlns:dc="http://purl.org/dc/elements/1.1/"
   xmlns:cc="http://creativecommons.org/ns#"
   xmlns:rdf="http://www.w3.org/1999/02/22-rdf-syntax-ns#"
   xmlns:svg="http://www.w3.org/2000/svg"
   xmlns="http://www.w3.org/2000/svg"
   xmlns:sodipodi="http://sodipodi.sourceforge.net/DTD/sodipodi-0.dtd"
   xmlns:inkscape="http://www.inkscape.org/namespaces/inkscape"
   inkscape:version="1.0 (4035a4f, 2020-05-01)"
   sodipodi:docname="lesavoir.svg"
   id="svg119"
   version="1.1"
   viewBox="0 0 117.25475 25.50585"
   height="25.50585mm"
   width="117.25475mm">
  <defs
     id="defs113" />
  <sodipodi:namedview
     inkscape:window-maximized="0"
     inkscape:window-y="23"
     inkscape:window-x="34"
     inkscape:window-height="729"
     inkscape:window-width="1246"
     showgrid="false"
     inkscape:document-rotation="0"
     inkscape:current-layer="text10-6"
     inkscape:document-units="mm"
     inkscape:cy="263.0404"
     inkscape:cx="403.09436"
     inkscape:zoom="0.86040217"
     inkscape:pageshadow="2"
     inkscape:pageopacity="0.0"
     borderopacity="1.0"
     bordercolor="#666666"
     pagecolor="#ffffff"
     id="base" />
  <metadata
     id="metadata116">
    <rdf:RDF>
      <cc:Work
         rdf:about="">
        <dc:format>image/svg+xml</dc:format>
        <dc:type
           rdf:resource="http://purl.org/dc/dcmitype/StillImage" />
      </cc:Work>
    </rdf:RDF>
  </metadata>
  <g
     transform="translate(-0.78781,-1.750795)"
     id="layer1"
     inkscape:groupmode="layer"
     inkscape:label="Layer 1">
    <g
       aria-label="LE   SAVOIR"
       transform="translate(14.851659,-11.857426)"
       id="text10-6"
       style="font-style:normal;font-weight:normal;font-size:35.2778px;line-height:1.25;font-family:sans-serif;letter-spacing:-2.64583px;word-spacing:-0.0132292px;white-space:pre;shape-inside:url(#rect12-3);fill:#000000;fill-opacity:1;stroke:none">
      <path
         d="m 2.6453972,35.833236 q 0,0.917223 -0.09494,3.033891 h -0.34811 q -0.189878,0 -0.917743,-0.07056 -0.72786498,-0.07055 -1.64560698,-0.07055 L -13.525863,38.620182 q -0.537986,0 -0.537986,-0.3175 0,-0.246945 0.854449,-0.3175 1.20256,-0.07056 1.424083,-0.282223 0.253171,-0.246944 0.253171,-1.340556 V 16.536278 q 0,-1.305278 -0.253171,-1.516945 -0.221523,-0.211667 -1.677253,-0.211667 -0.601279,0 -0.601279,-0.388056 0,-0.3175 0.379755,-0.3175 h 0.284817 q 1.044328,0.105834 4.1456652,0.105834 0.284816,0 1.10762,-0.03528 0.822803,-0.07056 1.360791,-0.07056 h 0.348109 q 0.569633,0 0.569633,0.352778 0,0.211667 -0.189877,0.282223 -0.158232,0.03528 -1.075975,0.07055 -0.917742,0.03528 -1.10762,0.352778 -0.158232,0.282223 -0.158232,1.834446 v 20.813903 q 0.854451,0.03528 2.373473,0.03528 3.702616,0 5.22163902,-0.423334 1.519022,-0.423334 2.05700898,-1.587501 0.537987,-1.164168 0.632926,-3.139724 0.03165,-0.458612 0.379755,-0.458612 0.411403,0 0.379756,0.529167 l -0.03165,0.881945 q 0,0.07056 0,0.3175 0.03165,0.246945 0.03165,0.49389 z"
         style="font-style:normal;font-variant:normal;font-weight:normal;font-stretch:normal;font-family:'Bodoni 72 Oldstyle';-inkscape-font-specification:'Bodoni 72 Oldstyle';fill:#999999;stroke-width:0.947132"
         id="path57" />
      <path
         d="m 18.356304,32.905178 q 0,0.141112 -0.0633,1.728613 -0.06329,1.587501 -0.06329,3.033891 v 1.164167 Q 15.128377,38.65546 5.9509512,38.65546 q -1.10762,0 -2.183595,0.03528 -1.075973,0 -1.455729,0 h -0.316463 q -0.60128,0 -0.60128,-0.3175 0,-0.211667 0.189878,-0.246945 0.09494,0 1.202559,-0.105833 0.822804,-0.07056 0.981035,-0.388056 0.189878,-0.3175 0.189878,-1.658057 V 16.148223 q 0,-1.023057 -0.284816,-1.199446 -0.25317,-0.211666 -1.7089,-0.211666 -0.506341,0 -0.506341,-0.317501 0,-0.3175 0.696218,-0.3175 l 5.411518,0.03528 q 0.284816,0 3.5760308,-0.03528 3.291214,0 4.430481,0 0.949389,0 1.740546,-0.141111 0.0633,1.516945 0.284818,4.198058 l 0.126585,1.516946 q 0.03165,0.176389 0.03165,0.458611 0,0.352778 -0.284818,0.352778 -0.348108,0 -0.50634,-0.881945 -0.60128,-3.175002 -1.96207,-4.021669 -1.012682,-0.635001 -5.3165778,-0.635001 h -2.594997 v 10.336396 h 0.759512 q 3.5443848,0 4.3038958,-0.599722 0.791158,-0.599723 1.075974,-3.492503 0.0633,-0.740834 0.34811,-0.740834 0.348109,0 0.348109,0.635001 0,0.635 -0.0633,1.869723 -0.0633,1.234723 -0.0633,1.869724 0,3.774725 0.126586,5.185837 0.03165,0.352778 0.03165,0.599722 0,0.458612 -0.348108,0.458612 -0.221525,0 -0.316463,-0.282223 -0.0633,-0.3175 -0.253171,-1.975557 -0.25317,-2.08139 -1.550669,-2.575279 -0.569633,-0.211667 -2.9747508,-0.211667 h -1.424084 v 11.853341 q 6.9621848,0 8.1647438,-0.3175 2.088656,-0.529167 2.373472,-4.515558 0.0633,-0.881945 0.411403,-0.881945 0.316463,0 0.316463,0.740833 z"
         style="font-style:normal;font-variant:normal;font-weight:normal;font-stretch:normal;font-family:'Bodoni 72 Oldstyle';-inkscape-font-specification:'Bodoni 72 Oldstyle';fill:#999999;stroke-width:0.947132"
         id="path59" />
      <path
         d="m 34.164138,31.741011 q 0,3.033891 -2.088655,5.185837 -2.05701,2.116668 -4.968468,2.116668 -1.708901,0 -4.082373,-1.164168 -0.632926,-0.3175 -0.949389,-0.3175 -0.379755,0 -0.474694,1.023056 -0.03165,0.529167 -0.411402,0.529167 -0.316463,0 -0.316463,-0.423333 0,-0.282223 0.03165,-0.423334 0.253171,-2.151946 0.253171,-3.986391 0,-0.352778 -0.0633,-1.975557 -0.03165,-0.211667 -0.03165,-0.564445 0,-0.529167 0.379755,-0.529167 0.316463,0 0.443048,0.846667 0.822804,6.279449 5.348224,6.279449 1.930424,0 2.974752,-1.199445 1.075974,-1.234724 1.075974,-3.457225 0,-1.975557 -1.044328,-3.351391 -1.012682,-1.411112 -3.512739,-2.786946 -3.006398,-1.658057 -4.177311,-3.21028 -1.170912,-1.552224 -1.170912,-3.845281 0,-2.928057 1.677253,-4.833059 1.7089,-1.905001 4.303896,-1.905001 1.075974,0 2.974752,0.81139 0.664572,0.282222 0.981035,0.282222 0.34811,0 0.443048,-0.141111 0.126586,-0.141111 0.221524,-0.740834 0.0633,-0.352778 0.34811,-0.352778 0.316463,0 0.316463,0.423334 0,0.282222 -0.03165,0.423333 -0.09494,0.846667 -0.09494,2.046113 0,1.693334 0.158232,2.681113 l 0.03165,0.564444 q 0.03165,0.388056 -0.284817,0.388056 -0.348109,0 -0.474694,-0.811389 -0.34811,-2.081391 -1.645607,-3.457225 -1.297498,-1.411112 -2.911459,-1.411112 -1.582315,0 -2.531704,1.12889 -0.917743,1.128889 -0.917743,3.069169 0,2.257779 1.360791,3.633613 0.759511,0.776112 3.291214,2.187224 2.974753,1.658056 4.27225,3.386669 1.297499,1.693334 1.297499,3.880558 z"
         style="font-style:normal;font-variant:normal;font-weight:normal;font-stretch:normal;font-family:'Bodoni 72 Oldstyle';-inkscape-font-specification:'Bodoni 72 Oldstyle';stroke-width:0.947132"
         id="path61" />
      <path
         d="m 53.185053,38.373238 q 0,0.3175 -0.474695,0.3175 -0.316463,0 -0.569633,-0.03528 l -4.01908,-0.07056 -4.019079,0.07056 q -0.221524,0.03528 -0.474695,0.03528 -0.632926,0 -0.632926,-0.352778 0,-0.388056 0.854451,-0.388056 2.784874,-0.03528 2.784874,-0.635 0,-0.03528 -0.0633,-0.282223 L 46.3178,36.08018 46.159568,35.586291 q -0.284813,-1.093612 -1.392434,-4.833059 h -6.772307 q -1.898777,5.644449 -1.898777,6.491116 0,0.493889 0.379755,0.599723 0.09494,0.03528 1.582315,0.141111 0.917743,0.03528 0.917743,0.352778 0,0.352778 -0.822804,0.352778 -1.45573,0 -3.386154,-0.141111 -0.474694,-0.03528 -0.981035,-0.03528 -0.506341,0 -0.981036,0.07055 -0.25317,0.03528 -0.411401,0.03528 -0.443048,0 -0.443048,-0.3175 0,-0.3175 0.981034,-0.352778 1.012682,-0.03528 1.45573,-0.3175 0.443049,-0.3175 0.696219,-1.164168 4.082372,-12.982231 6.645722,-20.84918 0.0633,-0.423334 0.253171,-0.952501 l 0.158231,-0.635 q 0.09494,-0.388056 0.25317,-0.388056 0.09494,0 0.158232,0.211667 0.411402,1.375834 1.867131,5.750281 1.139267,3.421947 5.664688,17.18029 0.25317,0.776111 0.632925,0.987778 0.411402,0.211667 1.645608,0.246945 0.822803,0.03528 0.822803,0.352778 z M 44.57726,29.941843 Q 44.07092,28.354342 42.900007,24.685451 L 41.380984,19.852392 Q 40.05184,23.73295 38.184709,29.941843 Z"
         style="font-style:normal;font-variant:normal;font-weight:normal;font-stretch:normal;font-family:'Bodoni 72 Oldstyle';-inkscape-font-specification:'Bodoni 72 Oldstyle';stroke-width:0.947132"
         id="path63" />
      <path
         d="m 64.739635,14.384333 q 0,0.282222 -0.574922,0.3175 -1.331395,0.03528 -1.785283,0.458611 -0.453887,0.423334 -0.938028,1.975557 l -1.028808,3.280836 q -3.721861,11.888619 -5.234813,18.238623 -0.09078,0.423334 -0.302592,0.423334 -0.24207,0 -0.998543,-2.645835 Q 52.514989,31.5999 51.758514,29.165731 50.94152,26.484618 49.337791,21.15767 l -1.452433,-4.762503 q -0.30259,-0.987778 -0.665699,-1.305278 -0.363108,-0.352778 -1.210361,-0.388056 -0.998547,-0.03528 -1.180102,-0.07056 -0.211813,-0.03528 -0.211813,-0.282222 0,-0.3175 0.605181,-0.3175 h 0.272331 q 0.544662,0 1.87606,0.07055 1.361656,0.03528 1.936577,0.03528 0.151295,0 1.149843,-0.03528 1.028808,-0.07055 2.904866,-0.07055 h 0.423627 q 0.54466,0 0.54466,0.352778 0,0.388055 -1.089323,0.423333 l -1.8458,0.07056 q -0.63544,0.03528 -0.63544,0.458611 0,0.07056 0.06053,0.282223 l 0.242071,0.917222 q 0.06053,0.282223 2.935126,9.94834 0.484139,1.658057 1.845794,6.314727 4.992743,-16.474733 4.992743,-17.321401 0,-0.846667 -1.482691,-0.776111 l -0.938028,0.03528 q -0.363114,0 -0.363114,-0.282223 0,-0.352778 0.907776,-0.352778 0.181548,0 1.028803,0 0.847254,0.03528 1.24062,0.03528 h 0.968286 l 1.9971,-0.03528 q 0.544662,0 0.544662,0.282223 z"
         style="font-style:normal;font-variant:normal;font-weight:normal;font-stretch:normal;font-family:'Bodoni 72 Oldstyle';-inkscape-font-specification:'Bodoni 72 Oldstyle';stroke-width:0.92614"
         id="path65" />
      <path
         sodipodi:nodetypes="scscscsssscscscscs"
         d="m 77.144785,26.519896 c 0,3.504262 -0.70367,6.467597 -2.11102,8.890006 -1.39171,2.422409 -3.10398,3.633614 -5.13682,3.633614 -2.157936,0 -3.971852,-1.222964 -5.441749,-3.668892 -1.469895,-2.469446 -2.204843,-5.503337 -2.204843,-9.101672 0,-3.668891 0.703674,-6.667505 2.111021,-8.99584 1.422982,-2.351853 3.236896,-3.52778 5.441741,-3.52778 2.07975,0 3.8233,1.222964 5.23065,3.668891 1.40735,2.445928 2.11102,5.479819 2.11102,9.101673 z m -3.15622,0.176389 c 0,-4.303891 -0.58639,-7.655282 -1.75919,-10.054173 -0.73494,-1.505186 -1.23001,-2.257779 -2.54353,-2.257779 -1.250983,0 -1.691327,0.576204 -2.379363,1.728612 -1.26661,2.116668 -1.899915,5.562133 -1.899915,10.336396 0,3.786484 0.437841,6.726301 1.313525,8.81945 0.891316,2.093149 1.605306,3.139724 3.200303,3.139724 1.48553,0 2.07443,-0.987778 2.82502,-2.963335 0.82877,-2.187223 1.24315,-5.103522 1.24315,-8.748895 z"
         style="font-style:normal;font-variant:normal;font-weight:normal;font-stretch:normal;font-family:'Bodoni 72 Oldstyle';-inkscape-font-specification:'Bodoni 72 Oldstyle';stroke-width:0.815407"
         id="path67" />
      <path
         d="m 84.430155,38.33796 q 0,0.282222 -0.37975,0.282222 h -0.31646 q -0.18988,-0.105833 -4.3039,-0.105833 -0.79116,0 -1.58231,0.07055 -0.4114,0.03528 -1.26585,0.03528 -0.4114,0 -0.4114,-0.3175 0,-0.282222 0.8228,-0.3175 1.26585,-0.03528 1.48738,-0.3175 0.22152,-0.317501 0.22152,-2.046113 V 17.065445 q 0,-1.728612 -0.15824,-1.940279 -0.18988,-0.352778 -1.74054,-0.423333 -0.60129,-0.03528 -0.60129,-0.282223 0,-0.3175 0.37977,-0.3175 l 4.27224,0.07056 q 0.4747,0 1.83549,-0.03528 l 1.20256,-0.03528 q 0.50634,0 0.50634,0.3175 0,0.282223 -1.39244,0.352778 -0.79115,0.03528 -0.98103,0.317501 -0.15823,0.282222 -0.15823,1.481667 v 18.838346 q 0,2.010835 0.15823,2.187224 0.3481,0.388056 2.05701,0.458611 0.3481,0 0.3481,0.282223 z"
         style="font-style:normal;font-variant:normal;font-weight:normal;font-stretch:normal;font-family:'Bodoni 72 Oldstyle';-inkscape-font-specification:'Bodoni 72 Oldstyle';stroke-width:0.947132"
         id="path69" />
      <path
         d="m 103.1909,37.561848 q 0,1.481668 -2.21524,1.481668 -2.468415,0 -3.860855,-2.293057 -0.60128,-0.987779 -0.79116,-1.905002 -0.15823,-0.917222 -0.50633,-4.656669 -0.18988,-2.25778 -1.2975,-3.175002 -1.10763,-0.952501 -3.60768,-1.023057 v 11.112508 q 0,0.705556 1.01268,0.881945 0.28482,0.03528 1.45573,0.07055 0.4114,0 0.4114,0.282223 0,0.3175 -0.53799,0.3175 h -0.37975 q -0.28482,-0.03528 -2.75323,-0.03528 -0.47469,0 -1.61397,0.03528 -1.10761,0 -1.45572,0 h -1.23421 q -0.69621,0 -0.69621,-0.3175 0,-0.246945 0.91774,-0.282223 1.48737,-0.03528 1.61396,-0.423333 0.12659,-0.176389 0.12659,-1.375834 V 16.783223 q 0,-1.411112 -0.28482,-1.693334 -0.25318,-0.282223 -1.61396,-0.317501 -0.79116,0 -0.79116,-0.3175 0,-0.352778 0.50634,-0.352778 0.0949,0 0.28482,0.03528 l 4.20895,0.105833 q 0.63293,0 1.77219,-0.03528 1.26585,-0.07056 1.7722,-0.07056 2.9431,0 4.65201,1.481668 1.740545,1.446389 1.740545,3.951113 0,2.469446 -1.772195,4.092225 -1.7722,1.587501 -4.81024,1.869724 -0.28482,0.03528 -0.31647,0.105833 0,0.141111 0.31647,0.141111 3.32286,0.635001 4.55707,2.610558 1.26585,1.940279 1.67725,7.05556 0.25317,2.89278 1.772205,2.89278 0.47469,0 0.47469,-0.211667 0,-0.03528 -0.0317,-0.07056 -0.15822,-0.388055 -0.15822,-0.635 0,-0.740834 0.69621,-0.740834 0.75951,0 0.75951,0.881945 z M 96.640115,19.88767 q 0,-5.044726 -3.92415,-5.044726 -1.04433,0 -1.42408,0.3175 -0.37975,0.3175 -0.37975,1.12889 v 8.960561 q 3.03804,0.03528 4.36718,-1.234723 1.3608,-1.27 1.3608,-4.127502 z"
         style="font-style:normal;font-variant:normal;font-weight:normal;font-stretch:normal;font-family:'Bodoni 72 Oldstyle';-inkscape-font-specification:'Bodoni 72 Oldstyle';stroke-width:0.947132"
         id="path71" />
    </g>
  </g>
</svg>
